<?xml version="1.0" standalone="no"?>
<!DOCTYPE svg PUBLIC "-//W3C//DTD SVG 20010904//EN"
 "http://www.w3.org/TR/2001/REC-SVG-20010904/DTD/svg10.dtd">
<svg version="1.0" xmlns="http://www.w3.org/2000/svg"
 width="100%" height="auto" viewBox="0 0 5760 1344"
 preserveAspectRatio="xMidYMid meet">

<g transform="translate(0.000000,1344.000000) scale(0.100000,-0.100000)"
fill="#000000" stroke="none">
<path d="M57560 13343 c-633 -102 -935 -174 -1455 -348 -491 -164 -874 -326
-1425 -601 -936 -468 -1759 -980 -3560 -2209 -557 -380 -1155 -783 -1465 -986
l-310 -203 -415 -194 c-866 -405 -1641 -760 -2095 -962 -232 -103 -377 -148
-1020 -320 -1945 -521 -3842 -798 -5880 -860 -425 -13 -1521 -13 -1920 0
-3122 100 -6501 576 -10955 1544 -597 129 -784 168 -1155 235 -1066 195 -2194
326 -3260 381 -839 43 -1813 41 -2640 -5 -2619 -146 -5176 -706 -7575 -1660
-184 -73 -455 -185 -602 -248 -244 -105 -277 -117 -390 -137 -166 -29 -598
-114 -738 -145 -62 -14 -201 -39 -309 -56 -3397 -534 -6689 -1746 -9293 -3420
-477 -307 -1098 -754 -1098 -791 0 -22 -17 -33 155 98 879 667 2061 1371 3265
1944 1959 932 4126 1628 6310 2025 135 25 256 48 270 51 14 3 22 3 19 -1 -4
-3 -127 -37 -275 -76 -1152 -300 -2261 -678 -3343 -1141 -2223 -950 -4322
-2261 -5985 -3737 -140 -124 -229 -195 -305 -241 -64 -40 -107 -73 -109 -84
-4 -18 -2 -18 33 3 21 12 39 20 41 18 2 -2 -14 -21 -36 -42 -22 -22 -40 -48
-40 -58 0 -13 34 13 113 88 121 115 181 154 577 377 1501 845 3278 1595 5146
2172 507 156 1311 382 1335 374 5 -2 -33 -41 -86 -87 -53 -45 -129 -113 -169
-151 -67 -62 -72 -69 -58 -84 10 -10 13 -19 7 -25 -6 -5 -115 -43 -243 -85
-2466 -810 -4786 -2010 -6435 -3329 l-187 -150 0 -44 0 -45 24 19 c13 10 102
81 197 158 1042 842 2449 1681 3984 2377 281 128 756 330 761 325 3 -2 -38
-22 -89 -45 -497 -219 -1222 -579 -1812 -900 -1034 -562 -2064 -1221 -2910
-1861 -76 -58 -143 -109 -148 -112 -5 -4 -7 -14 -5 -24 2 -13 25 0 103 60 891
686 2104 1453 3270 2069 952 504 2258 1091 2970 1337 1726 595 3624 1021 5480
1228 996 112 1895 161 2930 161 1315 0 2521 -86 3820 -271 739 -105 1251 -199
2310 -424 4371 -927 8053 -1427 11235 -1525 391 -12 1681 -12 2010 0 194 6
280 5 490 -11 1683 -124 3309 -151 4755 -79 2419 120 4567 483 6930 1172 1283
373 3446 1126 4475 1556 1449 605 2807 1325 4900 2595 350 213 473 282 575
325 349 145 934 366 1219 458 104 34 139 54 124 69 -14 14 -888 -304 -1213
-440 -31 -13 -37 -13 -25 -2 15 14 695 426 1058 641 107 64 182 114 182 123 0
10 -6 13 -16 9 -18 -7 -566 -335 -1104 -661 -298 -180 -394 -234 -525 -289
-598 -255 -1177 -523 -2430 -1126 -357 -172 -783 -376 -945 -453 -2156 -1021
-3544 -1562 -5260 -2050 -2107 -599 -3470 -926 -4948 -1186 -1744 -308 -3638
-480 -5447 -496 -561 -5 -558 -6 -140 46 1747 214 3478 610 5635 1291 1134
357 1600 519 2294 797 1169 469 2359 1027 4701 2205 1723 867 2622 1304 3515
1708 1803 816 3296 1326 4505 1537 178 32 165 26 165 66 0 31 -2 35 -22 30
-13 -2 -99 -18 -193 -35 -1276 -230 -2758 -745 -4700 -1633 -750 -343 -1260
-592 -3275 -1597 -2299 -1147 -2860 -1417 -3819 -1837 -1126 -493 -1790 -736
-3276 -1202 -2462 -771 -4321 -1165 -6396 -1356 -269 -25 -285 -25 -660 -15
-1240 32 -2394 102 -3724 226 -993 92 -1279 129 -2310 300 -1844 306 -3721
682 -5865 1175 -934 215 -1279 288 -1863 394 -2236 405 -4502 546 -6732 420
-1181 -67 -2333 -205 -3500 -420 -132 -24 -328 -56 -435 -70 -1006 -134 -2313
-382 -3244 -616 -87 -22 -160 -38 -162 -36 -5 5 255 210 476 374 618 461 1344
921 2125 1348 290 158 990 510 1280 643 l200 91 130 15 c72 9 279 29 460 46
2309 210 4628 120 6970 -271 475 -79 750 -132 1475 -284 2724 -571 4871 -940
7035 -1209 198 -25 520 -70 715 -100 1851 -286 3501 -445 5155 -497 427 -13
1735 -7 2085 11 1567 77 2820 237 4175 535 1650 362 3183 871 5530 1835 918
377 1663 738 2505 1215 142 80 155 85 635 245 934 310 1383 479 2057 774 977
427 1837 873 3563 1848 l470 266 203 66 c965 315 1933 537 2702 620 226 25
230 26 230 42 0 12 -9 14 -42 10 -24 -3 -108 -13 -188 -22 -720 -77 -1591
-271 -2515 -558 -115 -35 -211 -63 -213 -62 -3 3 481 272 788 438 726 392
1366 700 1939 933 l226 92 3 36 c2 21 1 37 -1 37 -11 0 -325 -128 -512 -208
-699 -301 -1546 -735 -2650 -1362 -135 -76 -205 -109 -335 -154 -1094 -387
-2262 -878 -4057 -1707 -249 -115 -456 -209 -460 -209 -4 0 267 184 603 408
335 224 751 505 924 623 1330 909 2034 1365 2720 1761 1319 762 2461 1208
3530 1378 250 40 240 38 240 55 0 8 -3 14 -7 14 -5 -1 -19 -4 -33 -6z m-3491
-2368 c-16 -15 -1110 -627 -1499 -837 -1222 -662 -2202 -1117 -3233 -1503
-262 -97 -1117 -388 -1124 -381 -2 2 52 36 119 76 197 117 545 332 793 490
130 82 284 171 355 204 1978 922 3147 1426 4310 1857 247 91 290 106 279 94z
m-5035 -2176 c-192 -123 -412 -258 -681 -420 l-311 -187 -184 -60 c-353 -117
-913 -292 -932 -292 -6 0 205 98 469 219 475 216 1322 608 1545 714 129 62
169 73 94 26z m-26834 -30 c1089 -35 2195 -145 3305 -330 501 -83 857 -153
1505 -294 3158 -689 5729 -1119 8120 -1359 1536 -155 2746 -214 4125 -203 666
6 850 11 1350 37 1796 97 3510 372 5289 850 185 49 234 58 159 27 -21 -9 -162
-68 -313 -132 -1187 -502 -2067 -817 -3639 -1300 -1970 -605 -3551 -964 -5196
-1179 -811 -107 -1550 -169 -2565 -217 -360 -17 -1739 -23 -2210 -10 -1607 45
-3575 208 -4605 381 -1850 312 -3662 699 -5985 1280 -688 172 -790 196 -1100
264 -2757 600 -5514 702 -8264 305 -153 -22 -283 -38 -287 -37 -12 4 448 195
756 314 1964 758 3993 1250 6100 1478 1131 123 2263 164 3455 125z m33670
-683 c-36 -33 -1428 -859 -1889 -1120 -1228 -696 -2262 -1208 -3326 -1646
-816 -336 -2721 -1008 -3815 -1345 -2385 -736 -4508 -1138 -6855 -1299 -1205
-83 -2591 -98 -3930 -40 -356 15 -935 47 -1170 64 -71 6 -141 10 -154 10 -13
0 -22 3 -19 6 3 3 116 12 249 20 320 19 614 40 883 64 178 16 302 20 675 20
2106 0 4241 195 6237 569 1378 259 2736 592 4694 1152 1384 396 2636 867 4211
1584 465 212 866 401 1754 828 1178 565 1812 861 2345 1095 129 57 130 57 110
38z m-8310 -167 c-458 -255 -1084 -572 -1525 -772 -680 -309 -2148 -896 -3035
-1214 -2701 -970 -5002 -1418 -7755 -1513 -371 -13 -1472 -13 -1855 0 -1388
46 -2634 154 -4210 366 -190 26 -348 50 -352 53 -4 4 95 -3 220 -16 996 -98
2080 -166 3102 -194 465 -13 1801 -7 2175 10 2729 123 4841 498 7670 1361
1713 523 2579 834 4015 1445 365 155 403 169 725 264 187 55 473 143 635 194
162 52 304 95 315 96 11 0 -45 -35 -125 -80z m-31205 -839 c1084 -47 2094
-156 3136 -340 678 -120 1106 -215 2186 -484 1814 -452 3280 -777 4743 -1050
636 -119 625 -117 550 -110 -97 8 -1047 144 -1525 219 -1512 236 -3114 534
-4895 909 -672 141 -993 203 -1455 281 -1975 332 -3992 451 -5945 350 -460
-24 -1189 -81 -1460 -114 -36 -5 -67 -7 -69 -5 -2 2 23 15 55 29 127 57 1199
199 1959 259 405 33 886 58 1350 70 215 6 1124 -4 1370 -14z m-4935 -348 c0
-5 -17 -14 -37 -20 -43 -13 -204 -34 -210 -28 -4 4 27 11 172 40 39 7 71 14
73 15 1 0 2 -3 2 -7z m-220 -104 c-320 -154 -909 -451 -1100 -554 -1036 -559
-1972 -1174 -2722 -1786 l-157 -128 -168 -35 c-433 -89 -1574 -437 -2428 -741
-1441 -511 -2824 -1136 -4015 -1812 -101 -57 -196 -112 -210 -120 -24 -16 -24
-16 -10 2 40 50 504 444 820 696 1664 1325 3687 2487 5770 3313 146 57 276
108 290 112 14 4 39 13 55 21 179 80 1078 386 1567 533 821 247 1523 417 1983
480 160 22 301 42 315 44 70 12 73 5 10 -25z m5925 -1248 c1514 -44 2961 -197
4450 -470 536 -98 878 -171 1697 -359 1746 -402 3204 -705 4718 -981 389 -71
1229 -217 1353 -235 26 -4 46 -9 44 -12 -8 -8 -978 120 -1720 227 -1706 246
-3571 565 -5502 941 -528 103 -931 177 -1275 233 -2691 444 -5364 569 -8010
376 -374 -28 -1039 -88 -1155 -105 -24 -3 -26 -2 -10 5 11 5 135 27 275 49
1219 191 2478 305 3690 334 302 8 1147 6 1445 -3z m-710 -240 c1311 -48 2504
-155 3760 -336 616 -89 1138 -179 1961 -338 2962 -574 5540 -984 7829 -1246
198 -23 563 -70 810 -105 963 -137 1836 -243 2695 -327 233 -23 234 -23 150
-30 -274 -21 -1517 2 -2315 42 -2999 152 -6409 644 -10541 1520 -901 191
-1355 275 -2029 375 -3523 522 -7048 350 -10424 -506 -150 -39 -275 -68 -277
-66 -9 9 844 254 1251 360 880 229 1628 387 2085 442 1043 124 2046 196 3130
225 382 10 1529 4 1915 -10z m-5988 -347 c-4 -3 -114 -30 -245 -60 -903 -202
-1757 -442 -2744 -770 -274 -90 -502 -163 -507 -161 -10 3 115 118 308 283 71
60 124 98 148 104 21 6 133 33 248 61 768 186 1520 339 2280 465 215 35 415
68 445 73 75 13 74 13 67 5z m21328 -1758 c1127 -100 2108 -160 3165 -195 178
-6 326 -13 328 -14 8 -8 -612 -43 -968 -54 -247 -8 -253 -7 -780 44 -687 66
-2014 221 -2085 243 -26 9 -24 9 15 5 25 -2 171 -15 325 -29z"/>
</g>
</svg>
